<svg xmlns="http://www.w3.org/2000/svg" viewBox="0 0 187.81 140.85"><defs><style>.cls-1{fill:#f2c125;}.cls-2{fill:#db851f;}.cls-3{fill:#354e77;}.cls-4{fill:#2a3f5e;}.cls-5{fill:#f42222;}.cls-6{fill:#c12121;}.cls-7{fill:#3f5d89;}.cls-8{fill:#ff6464;}</style></defs><g id="Layer_2" data-name="Layer 2"><g id="OBJECTS"><polygon class="cls-1" points="96.68 28.05 97.93 19.35 106.7 24.63 124.19 67.92 118 73.79 96.68 28.05"/><polygon class="cls-1" points="91.14 28.05 89.88 19.35 81.11 24.63 63.63 67.92 69.81 73.79 91.14 28.05"/><polygon class="cls-2" points="97.53 22.93 103.5 25.91 119.71 66.22 114.81 71.33 97.53 22.93"/><polygon class="cls-2" points="90.28 22.93 84.31 25.91 68.11 66.22 73.01 71.33 90.28 22.93"/><path class="cls-3" d="M96.22,18.66a2.46,2.46,0,0,1,2.33,1.63L118,73.79V108l-9.66,17.54a6.5,6.5,0,0,1-5.68,3.36H85.16a6.46,6.46,0,0,1-3.71-1.17,6.39,6.39,0,0,1-2-2.19L69.81,108V73.79l19.45-53.5a2.48,2.48,0,0,1,2.33-1.63Z"/><path class="cls-4" d="M102.66,128.91a6.49,6.49,0,0,0,5.68-3.36L118,108,107,75.49V58.75L99.69,41a2.59,2.59,0,0,0-2.41-1.61H90.53A2.59,2.59,0,0,0,88.13,41L80.79,58.75V75.49L69.81,108l9.67,17.54a6.48,6.48,0,0,0,5.68,3.36Z"/><path class="cls-5" d="M96.91,73.79a5.45,5.45,0,0,0,5.45-5.45v-10a2.66,2.66,0,0,0-.2-1L98.1,47.15a2.06,2.06,0,0,0-1.91-1.3H91.63a2.07,2.07,0,0,0-1.92,1.3L85.65,57.36a2.65,2.65,0,0,0-.19,1v10a5.45,5.45,0,0,0,5.45,5.45Z"/><path class="cls-6" d="M96.91,73.79a5.45,5.45,0,0,0,4.39-2.23l-4.62-8.65-2.77-.8-2.77.8-4.62,8.65a5.44,5.44,0,0,0,4.39,2.23Z"/><polygon class="cls-7" points="107.02 58.75 118 73.79 118 108.01 107.02 75.49 107.02 58.75"/><polygon class="cls-7" points="80.79 58.75 69.81 73.79 69.81 108.01 80.79 75.49 80.79 58.75"/><path class="cls-7" d="M93.91,41.27l4.69-1.56V20.42l0-.13a2.46,2.46,0,0,0-2.33-1.63H91.59a2.48,2.48,0,0,0-2.33,1.63l0,.13V39.71Z"/><path class="cls-7" d="M102.66,128.91a6.44,6.44,0,0,0,3.7-1.18l-5.84-44.35H87.3l-5.85,44.35a6.47,6.47,0,0,0,3.71,1.18Z"/><path class="cls-3" d="M107,75.49l-6.5,7.89,1.75,45.53h.39a6.46,6.46,0,0,0,5.68-3.36L118,108Z"/><path class="cls-3" d="M80.79,75.49l6.51,7.89-1.76,45.53h-.38a6.46,6.46,0,0,1-5.68-3.36L69.81,108Z"/><polygon class="cls-3" points="130.59 0 130.59 111.26 142.1 140.85 153.08 113.98 183.47 102.2 137.84 0 130.59 0"/><polygon class="cls-3" points="57.23 0 57.23 111.26 45.72 140.85 34.73 113.98 4.35 102.2 49.98 0 57.23 0"/><polygon class="cls-4" points="118 73.79 130.59 83.38 130.59 111.26 118 108.01 118 73.79"/><polygon class="cls-4" points="69.81 73.79 57.23 83.38 57.23 111.26 69.81 108.01 69.81 73.79"/><polygon class="cls-1" points="137.84 0 145.72 6.82 187.81 86.89 183.47 102.2 137.84 0"/><polygon class="cls-1" points="49.98 0 42.09 6.82 0 86.89 4.35 102.2 49.98 0"/><polygon class="cls-2" points="140.27 6.02 142.62 7.69 182.85 86.81 179.91 94.24 140.27 6.02"/><polygon class="cls-2" points="47.55 6.02 45.19 7.69 4.96 86.81 7.9 94.24 47.55 6.02"/><path class="cls-8" d="M96.68,62.91l1.57-15.4-.15-.36a2.06,2.06,0,0,0-1.91-1.3H91.63a2.07,2.07,0,0,0-1.92,1.3l-.14.36,1.57,15.4Z"/><rect class="cls-4" x="102.1" y="102.42" width="10.64" height="1.84" transform="translate(-37.28 67.56) rotate(-30)"/><rect class="cls-7" x="102.42" y="103.59" width="10.64" height="0.59" transform="translate(-37.51 67.79) rotate(-30)"/><rect class="cls-4" x="75.08" y="102.42" width="10.64" height="1.84" transform="translate(98.35 233.03) rotate(-150)"/><rect class="cls-7" x="74.76" y="103.59" width="10.64" height="0.59" transform="translate(97.49 233.89) rotate(-150)"/><rect class="cls-4" x="103.72" y="105.23" width="10.64" height="1.84" transform="translate(-38.46 68.74) rotate(-30)"/><rect class="cls-7" x="104.04" y="106.4" width="10.64" height="0.59" transform="translate(-38.69 68.97) rotate(-30)"/><rect class="cls-4" x="73.45" y="105.23" width="10.64" height="1.84" transform="translate(93.92 237.46) rotate(-150)"/><rect class="cls-7" x="73.14" y="106.4" width="10.64" height="0.59" transform="translate(93.06 238.31) rotate(-150)"/><rect class="cls-4" x="105.35" y="108.03" width="10.64" height="1.84" transform="translate(-39.65 69.93) rotate(-30)"/><rect class="cls-7" x="105.66" y="109.2" width="10.64" height="0.59" transform="translate(-39.88 70.16) rotate(-30)"/><rect class="cls-4" x="71.83" y="108.03" width="10.64" height="1.84" transform="translate(89.49 241.89) rotate(-150)"/><rect class="cls-7" x="71.52" y="109.2" width="10.64" height="0.59" transform="translate(88.63 242.74) rotate(-150)"/><polygon class="cls-7" points="130.59 0 142.1 140.85 130.59 111.26 130.59 0"/><polygon class="cls-7" points="57.23 0 45.72 140.85 57.23 111.26 57.23 0"/><polygon class="cls-7" points="153.08 113.98 130.59 0 137.84 0 183.47 102.2 153.08 113.98"/><polygon class="cls-7" points="34.73 113.98 57.23 0 49.98 0 4.35 102.2 34.73 113.98"/><path class="cls-4" d="M156.73,48.42l-7.5-12.69a2.94,2.94,0,0,0-3.44-1.31l-.6.19a2.93,2.93,0,0,0-2,3.06l1.28,15.26a2.91,2.91,0,0,0,1.28,2.19l2.66,1.8a3,3,0,0,0,1.65.51,2.72,2.72,0,0,0,.84-.13l3.48-1A3,3,0,0,0,156.4,54l.69-3.53A2.91,2.91,0,0,0,156.73,48.42Z"/><path class="cls-4" d="M31.08,48.42l7.5-12.69A3,3,0,0,1,42,34.42l.6.19a3,3,0,0,1,2.05,3.06L43.39,52.93a3,3,0,0,1-1.29,2.19l-2.65,1.8a3,3,0,0,1-1.65.51A2.74,2.74,0,0,1,37,57.3l-3.48-1a3,3,0,0,1-2-2.26l-.69-3.53A3,3,0,0,1,31.08,48.42Z"/><path class="cls-5" d="M144.23,37.58l1.28,15.25a1.81,1.81,0,0,0,.81,1.39L149,56a1.85,1.85,0,0,0,1.58.25l3.48-1a1.86,1.86,0,0,0,1.3-1.43l.69-3.53a1.85,1.85,0,0,0-.22-1.3l-7.5-12.69a1.87,1.87,0,0,0-2.18-.83l-.6.19A1.86,1.86,0,0,0,144.23,37.58Z"/><path class="cls-5" d="M43.59,37.58,42.31,52.83a1.85,1.85,0,0,1-.82,1.39L38.84,56a1.84,1.84,0,0,1-1.58.25l-3.48-1a1.86,1.86,0,0,1-1.3-1.43l-.69-3.53A1.85,1.85,0,0,1,32,49l7.5-12.69a1.87,1.87,0,0,1,2.18-.83l.6.19A1.88,1.88,0,0,1,43.59,37.58Z"/><path class="cls-8" d="M146.12,35.45l-.6.19a1.86,1.86,0,0,0-1.29,1.94l.07.88,5.14,12.36,2.63-.75-3.41-13.19-.36-.6A1.87,1.87,0,0,0,146.12,35.45Z"/><path class="cls-8" d="M41.69,35.45l.6.19a1.88,1.88,0,0,1,1.3,1.94l-.08.88L38.38,50.82l-2.64-.75,3.42-13.19.35-.6A1.87,1.87,0,0,1,41.69,35.45Z"/><path class="cls-6" d="M155.19,54.22l-3.12-4.15-2.63.75-.09,5.4a1.83,1.83,0,0,0,1.2.05l3.48-1A1.83,1.83,0,0,0,155.19,54.22Z"/><path class="cls-6" d="M32.62,54.22l3.12-4.15,2.64.75.09,5.4a1.86,1.86,0,0,1-1.21.05l-3.48-1A1.85,1.85,0,0,1,32.62,54.22Z"/><rect class="cls-4" x="153.6" y="82.09" width="14.88" height="2.58" transform="translate(-18.01 54.63) rotate(-18.25)"/><rect class="cls-3" x="153.83" y="83.58" width="14.88" height="1.05" transform="translate(-18.23 54.75) rotate(-18.25)"/><rect class="cls-4" x="155.39" y="87.52" width="14.88" height="2.58" transform="translate(-19.62 55.47) rotate(-18.25)"/><rect class="cls-3" x="155.63" y="89.01" width="14.88" height="1.05" transform="translate(-19.84 55.58) rotate(-18.25)"/><rect class="cls-4" x="157.18" y="92.95" width="14.88" height="2.58" transform="translate(-21.24 56.3) rotate(-18.25)"/><rect class="cls-3" x="157.42" y="94.44" width="14.88" height="1.05" transform="translate(-21.45 56.41) rotate(-18.25)"/><rect class="cls-4" x="19.34" y="82.09" width="14.88" height="2.58" transform="translate(26.1 170.96) rotate(-161.75)"/><rect class="cls-3" x="19.1" y="83.58" width="14.88" height="1.05" transform="translate(25.4 172.3) rotate(-161.75)"/><rect class="cls-4" x="17.55" y="87.52" width="14.88" height="2.58" transform="translate(20.9 180.98) rotate(-161.75)"/><rect class="cls-3" x="17.31" y="89.01" width="14.88" height="1.05" transform="translate(20.21 182.32) rotate(-161.75)"/><rect class="cls-4" x="15.76" y="92.95" width="14.88" height="2.58" transform="translate(15.71 191.01) rotate(-161.75)"/><rect class="cls-3" x="15.52" y="94.44" width="14.88" height="1.05" transform="translate(15.02 192.35) rotate(-161.75)"/></g></g></svg>