<svg xmlns="http://www.w3.org/2000/svg" viewBox="0 0 184.91 130.48"><defs><style>.cls-1{fill:#354e77;}.cls-2{fill:#3f5d89;}.cls-3{fill:#2a3f5e;}.cls-4{fill:#f42222;}.cls-5{fill:#c12121;}.cls-6{fill:#ff6464;}.cls-7{fill:#f2c125;}.cls-8{fill:#db851f;}</style></defs><g id="Layer_2" data-name="Layer 2"><g id="OBJECTS"><path class="cls-1" d="M125.14,60.56l4.46-1.33L136,30a3.34,3.34,0,0,1,2.94-2.61l8.54-.82a3.34,3.34,0,0,1,3.35,1.94l30.64,67.67a3.73,3.73,0,0,1,.29,2,3.63,3.63,0,0,1-1.2,2.22l-31.21,27.66a7.14,7.14,0,0,1-10.41-1l-13.14-17.25Z"/><path class="cls-1" d="M59.78,60.56l-4.46-1.33L48.94,30A3.34,3.34,0,0,0,46,27.4l-8.53-.82a3.34,3.34,0,0,0-3.36,1.94L3.47,96.19a3.73,3.73,0,0,0-.29,2,3.63,3.63,0,0,0,1.2,2.22L35.6,128.09a7.14,7.14,0,0,0,10.41-1l13.13-17.25Z"/><path class="cls-2" d="M147.45,26.58l-8.54.82a3.33,3.33,0,0,0-1.43.48c2.58,5.17,7,13.78,7,13.78l2.38-1.39,2.64-13.2A3.31,3.31,0,0,0,147.45,26.58Z"/><path class="cls-2" d="M37.47,26.58,46,27.4a3.33,3.33,0,0,1,1.43.48c-2.57,5.17-7,13.78-7,13.78L38,40.27l-2.65-13.2A3.33,3.33,0,0,1,37.47,26.58Z"/><path class="cls-1" d="M94.77,0A2.48,2.48,0,0,1,97.1,1.63l19.45,58.7v49.26l-9.66,17.54a6.46,6.46,0,0,1-5.69,3.35H83.71A6.46,6.46,0,0,1,78,127.13l-9.66-17.54V60.33L87.81,1.63A2.48,2.48,0,0,1,90.14,0Z"/><path class="cls-3" d="M101.2,130.48a6.49,6.49,0,0,0,5.69-3.35l9.66-17.54-11-32.52V60.33l-7.33-17.8a2.61,2.61,0,0,0-2.41-1.61H89.08a2.63,2.63,0,0,0-2.41,1.61l-7.33,17.8V77.07l-11,32.52L78,127.13a6.5,6.5,0,0,0,5.69,3.35Z"/><path class="cls-4" d="M95.45,75.36a5.45,5.45,0,0,0,5.45-5.45v-10a2.57,2.57,0,0,0-.19-1L96.65,48.73a2,2,0,0,0-1.91-1.3H90.18a2.05,2.05,0,0,0-1.92,1.3L84.2,58.94a2.57,2.57,0,0,0-.19,1v10a5.45,5.45,0,0,0,5.45,5.45Z"/><path class="cls-5" d="M95.45,75.36a5.43,5.43,0,0,0,4.39-2.23l-4.61-8.65-2.77-.8-2.78.8-4.61,8.65a5.43,5.43,0,0,0,4.39,2.23Z"/><polygon class="cls-2" points="105.57 60.33 116.55 60.33 116.55 109.58 105.57 77.07 105.57 60.33"/><polygon class="cls-2" points="79.34 60.33 68.36 60.33 68.36 109.58 79.34 77.07 79.34 60.33"/><path class="cls-2" d="M92.46,42.85l4.69-1.56V1.76l-.05-.13A2.48,2.48,0,0,0,94.77,0H90.14a2.48,2.48,0,0,0-2.33,1.63l0,.13V41.29Z"/><path class="cls-2" d="M101.2,130.48a6.44,6.44,0,0,0,3.71-1.18L99.07,85H85.85L80,129.3a6.47,6.47,0,0,0,3.71,1.18Z"/><path class="cls-1" d="M105.57,77.07,99.07,85l1.75,45.52h.38a6.46,6.46,0,0,0,5.69-3.35l9.66-17.54Z"/><path class="cls-1" d="M79.34,77.07,85.85,85l-1.76,45.52h-.38A6.46,6.46,0,0,1,78,127.13l-9.66-17.54Z"/><polygon class="cls-3" points="116.55 60.33 125.14 60.33 125.78 109.58 116.55 109.58 116.55 60.33"/><polygon class="cls-3" points="68.36 60.33 59.78 60.33 59.14 109.58 68.36 109.58 68.36 60.33"/><path class="cls-6" d="M95.23,64.48l1.56-15.4-.14-.35a2,2,0,0,0-1.91-1.3H90.18a2.05,2.05,0,0,0-1.92,1.3l-.14.35,1.56,15.4Z"/><rect class="cls-3" x="100.65" y="103.99" width="10.64" height="1.84" transform="translate(-38.26 67.04) rotate(-30)"/><rect class="cls-2" x="100.97" y="105.16" width="10.64" height="0.59" transform="translate(-38.49 67.27) rotate(-30)"/><rect class="cls-3" x="73.62" y="103.99" width="10.64" height="1.84" transform="translate(94.85 235.24) rotate(-150)"/><rect class="cls-2" x="73.31" y="105.16" width="10.64" height="0.59" transform="translate(93.99 236.1) rotate(-150)"/><rect class="cls-3" x="102.27" y="106.8" width="10.64" height="1.84" transform="translate(-39.45 68.23) rotate(-30)"/><rect class="cls-2" x="102.59" y="107.97" width="10.64" height="0.59" transform="translate(-39.67 68.46) rotate(-30)"/><rect class="cls-3" x="72" y="106.8" width="10.64" height="1.84" transform="translate(90.42 239.67) rotate(-150)"/><rect class="cls-2" x="71.69" y="107.97" width="10.64" height="0.59" transform="translate(89.56 240.53) rotate(-150)"/><rect class="cls-3" x="103.89" y="109.61" width="10.64" height="1.84" transform="translate(-40.63 69.41) rotate(-30)"/><rect class="cls-2" x="104.21" y="110.78" width="10.64" height="0.59" transform="translate(-40.86 69.64) rotate(-30)"/><rect class="cls-3" x="70.38" y="109.61" width="10.64" height="1.84" transform="translate(85.99 244.1) rotate(-150)"/><rect class="cls-2" x="70.07" y="110.78" width="10.64" height="0.59" transform="translate(85.13 244.95) rotate(-150)"/><path class="cls-3" d="M151.8,48.72,147.58,34.6a2.94,2.94,0,0,0-3-2.1l-.64,0A2.93,2.93,0,0,0,141.21,35l-2.44,15.12a3,3,0,0,0,.72,2.44L141.63,55a2.92,2.92,0,0,0,1.48.89,3,3,0,0,0,.85.09l3.63-.17a3,3,0,0,0,2.54-1.7l1.51-3.25A3,3,0,0,0,151.8,48.72Z"/><path class="cls-4" d="M142.27,35.18,139.84,50.3a1.9,1.9,0,0,0,.45,1.55l2.15,2.38a1.86,1.86,0,0,0,1.47.62l3.63-.17a1.89,1.89,0,0,0,1.61-1.08l1.51-3.25a1.83,1.83,0,0,0,.1-1.32l-4.22-14.12a1.86,1.86,0,0,0-1.91-1.33l-.63,0A1.88,1.88,0,0,0,142.27,35.18Z"/><path class="cls-6" d="M144.63,33.58l-.63,0a1.88,1.88,0,0,0-1.73,1.56l-.14.88,2,13.23,2.74-.09-.14-13.63-.2-.66A1.86,1.86,0,0,0,144.63,33.58Z"/><path class="cls-5" d="M148.91,54l-2-4.78-2.74.09-1.39,5.22a1.91,1.91,0,0,0,1.16.34l3.63-.17A1.86,1.86,0,0,0,148.91,54Z"/><path class="cls-3" d="M33.11,48.72,37.34,34.6a2.92,2.92,0,0,1,3-2.1l.64,0A2.94,2.94,0,0,1,43.71,35l2.43,15.12a3,3,0,0,1-.72,2.44L43.28,55a2.88,2.88,0,0,1-1.48.89,3,3,0,0,1-.85.09l-3.63-.17a2.92,2.92,0,0,1-2.53-1.7l-1.52-3.25A3,3,0,0,1,33.11,48.72Z"/><path class="cls-4" d="M42.64,35.18,45.07,50.3a1.9,1.9,0,0,1-.45,1.55l-2.14,2.38a1.89,1.89,0,0,1-1.48.62l-3.63-.17a1.86,1.86,0,0,1-1.6-1.08l-1.52-3.25a1.83,1.83,0,0,1-.1-1.32l4.22-14.12a1.86,1.86,0,0,1,1.91-1.33l.64,0A1.87,1.87,0,0,1,42.64,35.18Z"/><path class="cls-6" d="M40.28,33.58l.64,0a1.87,1.87,0,0,1,1.72,1.56l.14.88-2,13.23L38,49.2l.13-13.63.2-.66A1.86,1.86,0,0,1,40.28,33.58Z"/><path class="cls-5" d="M36,54l2-4.78,2.73.09s.78,2.9,1.39,5.22a1.89,1.89,0,0,1-1.16.34l-3.63-.17A1.88,1.88,0,0,1,36,54Z"/><rect class="cls-3" x="134.44" y="66.25" width="14.88" height="2.58" transform="translate(284.53 133.42) rotate(179.33)"/><rect class="cls-2" x="134.43" y="66.25" width="14.88" height="1.05" transform="translate(284.5 131.89) rotate(179.33)"/><rect class="cls-3" x="134.44" y="73.05" width="14.88" height="2.58" transform="translate(284.61 147.02) rotate(179.33)"/><rect class="cls-2" x="134.43" y="73.05" width="14.88" height="1.05" transform="translate(284.58 145.49) rotate(179.33)"/><rect class="cls-3" x="134.44" y="79.85" width="14.88" height="2.58" transform="translate(284.69 160.61) rotate(179.33)"/><rect class="cls-2" x="134.43" y="79.85" width="14.88" height="1.05" transform="translate(284.66 159.08) rotate(179.33)"/><rect class="cls-3" x="35.6" y="66.25" width="14.88" height="2.58" transform="translate(0.79 -0.5) rotate(0.67)"/><rect class="cls-2" x="35.61" y="66.25" width="14.88" height="1.05" transform="translate(0.78 -0.5) rotate(0.67)"/><rect class="cls-3" x="35.6" y="73.05" width="14.88" height="2.58" transform="translate(0.87 -0.5) rotate(0.67)"/><rect class="cls-2" x="35.61" y="73.05" width="14.88" height="1.05" transform="translate(0.86 -0.5) rotate(0.67)"/><rect class="cls-3" x="35.6" y="79.85" width="14.88" height="2.58" transform="translate(0.95 -0.5) rotate(0.67)"/><rect class="cls-2" x="35.61" y="79.85" width="14.88" height="1.05" transform="translate(0.94 -0.5) rotate(0.67)"/><polygon class="cls-2" points="129.59 59 130.75 116.13 125.76 108.26 125.14 60.33 129.59 59"/><polygon class="cls-2" points="55.32 59 54.16 116.13 59.15 108.26 59.78 60.33 55.32 59"/><path class="cls-3" d="M150.8,28.52a3.34,3.34,0,0,0-1.28-1.45l24.54,79.1,6.47-5.74a3.63,3.63,0,0,0,1.2-2.22,3.73,3.73,0,0,0-.29-2Z"/><path class="cls-3" d="M34.11,28.52a3.34,3.34,0,0,1,1.28-1.45l-24.54,79.1-6.47-5.74a3.63,3.63,0,0,1-1.2-2.22,3.73,3.73,0,0,1,.29-2Z"/><polygon class="cls-7" points="97.1 1.63 127.18 54.85 125.14 60.33 116.55 60.33 97.1 1.63"/><polygon class="cls-7" points="87.81 1.63 57.74 54.85 59.78 60.33 68.36 60.33 87.81 1.63"/><polygon class="cls-8" points="97.1 1.63 123.54 54.85 121.16 60.33 116.55 60.33 97.1 1.63"/><polygon class="cls-8" points="87.81 1.63 61.38 54.85 63.75 60.33 68.36 60.33 87.81 1.63"/><polygon class="cls-7" points="150.8 28.52 157.5 32.49 184.91 87.56 181.44 96.19 150.8 28.52"/><polygon class="cls-7" points="34.11 28.52 27.42 32.49 0 87.56 3.47 96.19 34.11 28.52"/><polygon class="cls-8" points="153.09 33.57 155.79 35.08 180.74 85.7 178.63 89.98 153.09 33.57"/><polygon class="cls-8" points="31.82 33.57 29.12 35.08 4.17 85.7 6.28 89.98 31.82 33.57"/></g></g></svg>