<svg xmlns="http://www.w3.org/2000/svg" viewBox="0 0 195.16 134.31"><defs><style>.cls-1{fill:#f2c125;}.cls-2{fill:#db851f;}.cls-3{fill:#354e77;}.cls-4{fill:#2a3f5e;}.cls-5{fill:#f42222;}.cls-6{fill:#c12121;}.cls-7{fill:#3f5d89;}.cls-8{fill:#ff6464;}</style></defs><g id="Layer_2" data-name="Layer 2"><g id="OBJECTS"><polygon class="cls-1" points="126.05 56.81 135.78 54.55 172.36 64.2 180.82 72.67 126.05 56.81"/><polygon class="cls-1" points="69.11 56.81 59.38 54.55 22.8 64.2 14.34 72.67 69.11 56.81"/><polygon class="cls-2" points="176.72 73.23 170.64 66.54 136.18 56.98 130.29 58.47 176.72 73.23"/><polygon class="cls-2" points="18.44 73.23 24.52 66.54 58.98 56.98 64.88 58.47 18.44 73.23"/><path class="cls-3" d="M99.9,0a2.48,2.48,0,0,1,2.33,1.63l19.45,8.7V113.41L112,131a6.46,6.46,0,0,1-5.68,3.35H88.83a6.52,6.52,0,0,1-3.71-1.16,6.59,6.59,0,0,1-2-2.19l-9.66-17.55V10.33l19.45-8.7A2.46,2.46,0,0,1,95.26,0Z"/><path class="cls-4" d="M106.33,134.31A6.48,6.48,0,0,0,112,131l9.67-17.55-11-32.51V64.16l-7.34-17.8a2.6,2.6,0,0,0-2.4-1.61H94.21a2.61,2.61,0,0,0-2.41,1.61l-7.33,17.8V80.9l-11,32.51L83.15,131a6.48,6.48,0,0,0,5.68,3.35Z"/><path class="cls-5" d="M100.58,79.19A5.45,5.45,0,0,0,106,73.74v-10a2.57,2.57,0,0,0-.19-1l-4.06-10.21a2.05,2.05,0,0,0-1.92-1.3H95.3a2,2,0,0,0-1.91,1.3L89.32,62.77a2.77,2.77,0,0,0-.19,1v10a5.45,5.45,0,0,0,5.45,5.45Z"/><path class="cls-6" d="M100.58,79.19A5.44,5.44,0,0,0,105,77l-4.62-8.65-2.77-.8-2.77.8L90.19,77a5.45,5.45,0,0,0,4.39,2.23Z"/><polygon class="cls-7" points="110.7 64.16 121.68 10.33 121.68 113.42 110.7 80.9 110.7 64.16"/><polygon class="cls-7" points="84.47 64.16 73.48 10.33 73.48 113.42 84.47 80.9 84.47 64.16"/><path class="cls-7" d="M97.58,46.67l4.69-1.55V1.76l0-.13A2.48,2.48,0,0,0,99.9,0H95.26a2.46,2.46,0,0,0-2.32,1.63l0,.13V45.12Z"/><path class="cls-7" d="M106.33,134.31a6.49,6.49,0,0,0,3.71-1.18l-5.85-44.34H91l-5.84,44.34a6.44,6.44,0,0,0,3.7,1.18Z"/><path class="cls-3" d="M110.7,80.9l-6.51,7.89L106,134.31h.38A6.46,6.46,0,0,0,112,131l9.67-17.55Z"/><path class="cls-3" d="M84.47,80.9,91,88.79l-1.75,45.52h-.39a6.52,6.52,0,0,1-3.71-1.16,6.59,6.59,0,0,1-2-2.19l-9.66-17.55Z"/><path class="cls-8" d="M100.35,68.31l1.57-15.4-.14-.35a2.05,2.05,0,0,0-1.92-1.3H95.3a2,2,0,0,0-1.91,1.3l-.15.35,1.57,15.4Z"/><rect class="cls-4" x="105.78" y="107.82" width="10.64" height="1.84" transform="translate(-39.49 70.12) rotate(-30)"/><rect class="cls-7" x="106.09" y="108.99" width="10.64" height="0.59" transform="translate(-39.72 70.35) rotate(-30)"/><rect class="cls-4" x="78.75" y="107.82" width="10.64" height="1.84" transform="translate(102.5 244.95) rotate(-150)"/><rect class="cls-7" x="78.44" y="108.99" width="10.64" height="0.59" transform="translate(101.64 245.81) rotate(-150)"/><rect class="cls-4" x="107.4" y="110.63" width="10.64" height="1.84" transform="translate(-40.67 71.3) rotate(-30)"/><rect class="cls-7" x="107.71" y="111.8" width="10.64" height="0.59" transform="translate(-40.9 71.53) rotate(-30)"/><rect class="cls-4" x="77.13" y="110.63" width="10.64" height="1.84" transform="translate(98.07 249.38) rotate(-150)"/><rect class="cls-7" x="76.81" y="111.8" width="10.64" height="0.59" transform="translate(97.21 250.23) rotate(-150)"/><rect class="cls-4" x="109.02" y="113.44" width="10.64" height="1.84" transform="translate(-41.86 72.49) rotate(-30)"/><rect class="cls-7" x="109.33" y="114.61" width="10.64" height="0.59" transform="translate(-42.09 72.72) rotate(-30)"/><rect class="cls-4" x="75.51" y="113.44" width="10.64" height="1.84" transform="translate(93.64 253.81) rotate(-150)"/><rect class="cls-7" x="75.19" y="114.61" width="10.64" height="0.59" transform="translate(92.79 254.66) rotate(-150)"/><polygon class="cls-4" points="121.68 10.33 136.18 108.74 121.68 113.42 121.68 10.33"/><polygon class="cls-4" points="73.48 10.33 58.98 108.74 73.48 113.42 73.48 10.33"/><path class="cls-3" d="M136.18,108.74,192,117.29a2.74,2.74,0,0,0,3-3.61l-14.19-41L128.07,57.39Z"/><path class="cls-3" d="M59,108.74,3.16,117.29a2.73,2.73,0,0,1-2.57-1,2.77,2.77,0,0,1-.44-2.6l14.19-41L67.09,57.39Z"/><path class="cls-4" d="M191.78,117l-6.11-1.24L172.43,77.47l8.39-4.8,14.1,40.77a2.73,2.73,0,0,1-3.14,3.58Z"/><path class="cls-4" d="M3.38,117l6.11-1.24L22.73,77.47l-8.39-4.8L.24,113.44A2.74,2.74,0,0,0,3.38,117Z"/><polygon class="cls-7" points="172.43 77.47 128.07 57.39 180.82 72.67 172.43 77.47"/><polygon class="cls-7" points="22.73 77.47 67.09 57.39 14.34 72.67 22.73 77.47"/><rect class="cls-4" x="161.78" y="105.26" width="14.88" height="2.58" transform="translate(24.74 -31.7) rotate(11.54)"/><rect class="cls-7" x="161.62" y="106.77" width="14.88" height="1.05" transform="translate(24.88 -31.65) rotate(11.54)"/><rect class="cls-4" x="160.63" y="99.63" width="14.88" height="2.58" transform="translate(23.59 -31.58) rotate(11.54)"/><rect class="cls-7" x="160.48" y="101.14" width="14.88" height="1.05" transform="translate(23.73 -31.54) rotate(11.54)"/><rect class="cls-4" x="157.31" y="93.26" width="14.88" height="2.58" transform="translate(22.24 -31.05) rotate(11.54)"/><rect class="cls-7" x="157.15" y="94.77" width="14.88" height="1.05" transform="translate(22.39 -31) rotate(11.54)"/><rect class="cls-4" x="18.51" y="105.26" width="14.88" height="2.58" transform="translate(72.69 205.75) rotate(168.46)"/><rect class="cls-7" x="18.66" y="106.77" width="14.88" height="1.05" transform="translate(73.14 207.2) rotate(168.46)"/><rect class="cls-4" x="19.65" y="99.63" width="14.88" height="2.58" transform="translate(73.82 194.37) rotate(168.46)"/><rect class="cls-7" x="19.8" y="101.14" width="14.88" height="1.05" transform="translate(74.27 195.82) rotate(168.46)"/><rect class="cls-4" x="22.98" y="93.26" width="14.88" height="2.58" transform="translate(79.13 181.09) rotate(168.46)"/><rect class="cls-7" x="23.13" y="94.77" width="14.88" height="1.05" transform="translate(79.59 182.55) rotate(168.46)"/><circle class="cls-4" cx="142.77" cy="80.9" r="7.66" transform="translate(-14.8 35.09) rotate(-13.33)"/><path class="cls-5" d="M136.91,80.9A5.86,5.86,0,1,0,142.77,75,5.86,5.86,0,0,0,136.91,80.9Z"/><path class="cls-8" d="M138.11,77.35a5.86,5.86,0,0,1,8.51-.87l-2.2,4.42h-3.94Z"/><path class="cls-6" d="M144.42,80.9l2.15,4.45a5.84,5.84,0,0,1-8.22-.61l2.13-3.84Z"/><circle class="cls-4" cx="52.4" cy="80.9" r="7.66" transform="translate(-41.86 60.74) rotate(-45)"/><path class="cls-5" d="M58.26,80.9A5.86,5.86,0,1,1,52.4,75,5.87,5.87,0,0,1,58.26,80.9Z"/><path class="cls-8" d="M57.05,77.35a5.85,5.85,0,0,0-8.5-.87l2.19,4.42h3.95Z"/><path class="cls-6" d="M50.74,80.9,48.6,85.35a5.78,5.78,0,0,0,3.8,1.41,5.84,5.84,0,0,0,4.41-2L54.69,80.9Z"/><polygon class="cls-1" points="102.23 1.63 108.67 0 120.19 5.1 121.68 10.33 102.23 1.63"/><polygon class="cls-1" points="92.94 1.63 86.49 0 74.98 5.1 73.48 10.33 92.94 1.63"/><polygon class="cls-2" points="105.47 3.08 108.78 2.22 118.69 6.38 119.49 9.35 105.47 3.08"/><polygon class="cls-2" points="89.69 3.08 86.39 2.22 76.47 6.38 75.67 9.35 89.69 3.08"/></g></g></svg>